<mxfile host="app.diagrams.net" agent="Mozilla/5.0 (Macintosh; Intel Mac OS X 10_15_7) AppleWebKit/537.36 (KHTML, like Gecko) Chrome/128.0.0.0 Safari/537.36 OPR/114.0.0.0" version="25.0.3">
  <diagram name="Page-1" id="LNh-3uC9zd6_e8-Dteng">
    <mxGraphModel dx="2618" dy="1226" grid="1" gridSize="10" guides="1" tooltips="1" connect="1" arrows="1" fold="1" page="0" pageScale="1" pageWidth="850" pageHeight="1100" math="0" shadow="0">
      <root>
        <mxCell id="0" />
        <mxCell id="1" parent="0" />
        <mxCell id="E7nbCfxs4qQWBFJL3slr-19" value="" style="rounded=1;whiteSpace=wrap;html=1;dashed=1;fillColor=none;" vertex="1" parent="1">
          <mxGeometry x="-350" y="-10" width="360" height="250" as="geometry" />
        </mxCell>
        <mxCell id="E7nbCfxs4qQWBFJL3slr-2" value="grafana:3000" style="shape=image;verticalLabelPosition=bottom;labelBackgroundColor=default;verticalAlign=top;aspect=fixed;imageAspect=0;image=https://upload.wikimedia.org/wikipedia/commons/3/3b/Grafana_icon.svg;" vertex="1" parent="1">
          <mxGeometry x="-210" y="20" width="48.08" height="50" as="geometry" />
        </mxCell>
        <mxCell id="E7nbCfxs4qQWBFJL3slr-12" style="edgeStyle=none;curved=1;rounded=0;orthogonalLoop=1;jettySize=auto;html=1;entryX=0;entryY=0.5;entryDx=0;entryDy=0;fontSize=12;startSize=8;endSize=8;dashed=1;" edge="1" parent="1" source="E7nbCfxs4qQWBFJL3slr-3" target="E7nbCfxs4qQWBFJL3slr-6">
          <mxGeometry relative="1" as="geometry" />
        </mxCell>
        <mxCell id="E7nbCfxs4qQWBFJL3slr-13" value="alert" style="edgeLabel;html=1;align=center;verticalAlign=middle;resizable=0;points=[];fontSize=12;" vertex="1" connectable="0" parent="E7nbCfxs4qQWBFJL3slr-12">
          <mxGeometry x="-0.1406" relative="1" as="geometry">
            <mxPoint as="offset" />
          </mxGeometry>
        </mxCell>
        <mxCell id="E7nbCfxs4qQWBFJL3slr-3" value="prometheus:9000" style="shape=image;verticalLabelPosition=bottom;labelBackgroundColor=default;verticalAlign=top;aspect=fixed;imageAspect=0;image=https://static-00.iconduck.com/assets.00/prometheus-icon-511x512-1vmxbcxr.png;container=0;" vertex="1" parent="1">
          <mxGeometry x="-310" y="140" width="39.92" height="40" as="geometry" />
        </mxCell>
        <mxCell id="E7nbCfxs4qQWBFJL3slr-18" style="edgeStyle=none;curved=1;rounded=0;orthogonalLoop=1;jettySize=auto;html=1;fontSize=12;startSize=8;endSize=8;dashed=1;" edge="1" parent="1" source="E7nbCfxs4qQWBFJL3slr-4" target="E7nbCfxs4qQWBFJL3slr-5">
          <mxGeometry relative="1" as="geometry" />
        </mxCell>
        <mxCell id="E7nbCfxs4qQWBFJL3slr-20" value="alert" style="edgeLabel;html=1;align=center;verticalAlign=middle;resizable=0;points=[];fontSize=12;" vertex="1" connectable="0" parent="E7nbCfxs4qQWBFJL3slr-18">
          <mxGeometry x="-0.2872" y="2" relative="1" as="geometry">
            <mxPoint as="offset" />
          </mxGeometry>
        </mxCell>
        <mxCell id="E7nbCfxs4qQWBFJL3slr-4" value="Slack" style="shape=image;verticalLabelPosition=bottom;labelBackgroundColor=default;verticalAlign=top;aspect=fixed;imageAspect=0;image=https://upload.wikimedia.org/wikipedia/commons/thumb/d/d5/Slack_icon_2019.svg/2048px-Slack_icon_2019.svg.png;" vertex="1" parent="1">
          <mxGeometry x="70" y="144.07999999999998" width="31.84" height="31.84" as="geometry" />
        </mxCell>
        <mxCell id="E7nbCfxs4qQWBFJL3slr-5" value="User" style="shape=image;verticalLabelPosition=bottom;labelBackgroundColor=default;verticalAlign=top;aspect=fixed;imageAspect=0;image=https://cdn.icon-icons.com/icons2/2468/PNG/512/user_icon_149329.png;" vertex="1" parent="1">
          <mxGeometry x="190" y="142.5" width="35" height="35" as="geometry" />
        </mxCell>
        <mxCell id="E7nbCfxs4qQWBFJL3slr-16" style="edgeStyle=none;curved=1;rounded=0;orthogonalLoop=1;jettySize=auto;html=1;entryX=0;entryY=0.5;entryDx=0;entryDy=0;fontSize=12;startSize=8;endSize=8;dashed=1;" edge="1" parent="1" source="E7nbCfxs4qQWBFJL3slr-6" target="E7nbCfxs4qQWBFJL3slr-4">
          <mxGeometry relative="1" as="geometry" />
        </mxCell>
        <mxCell id="E7nbCfxs4qQWBFJL3slr-17" value="alert" style="edgeLabel;html=1;align=center;verticalAlign=middle;resizable=0;points=[];fontSize=12;" vertex="1" connectable="0" parent="E7nbCfxs4qQWBFJL3slr-16">
          <mxGeometry x="-0.3625" y="-2" relative="1" as="geometry">
            <mxPoint as="offset" />
          </mxGeometry>
        </mxCell>
        <mxCell id="E7nbCfxs4qQWBFJL3slr-6" value="alertmanager:9093" style="shape=image;verticalLabelPosition=bottom;labelBackgroundColor=default;verticalAlign=top;aspect=fixed;imageAspect=0;image=https://cdn-icons-png.flaticon.com/512/8957/8957116.png;" vertex="1" parent="1">
          <mxGeometry x="-100" y="140" width="40" height="40" as="geometry" />
        </mxCell>
        <mxCell id="E7nbCfxs4qQWBFJL3slr-8" value="" style="curved=1;endArrow=classic;html=1;rounded=0;fontSize=12;startSize=8;endSize=8;exitX=0.5;exitY=0;exitDx=0;exitDy=0;entryX=0;entryY=0.5;entryDx=0;entryDy=0;" edge="1" parent="1" source="E7nbCfxs4qQWBFJL3slr-3" target="E7nbCfxs4qQWBFJL3slr-2">
          <mxGeometry width="50" height="50" relative="1" as="geometry">
            <mxPoint x="-290" y="90" as="sourcePoint" />
            <mxPoint x="-240" y="40" as="targetPoint" />
            <Array as="points">
              <mxPoint x="-300" y="90" />
            </Array>
          </mxGeometry>
        </mxCell>
        <mxCell id="E7nbCfxs4qQWBFJL3slr-9" value="datasource" style="edgeLabel;html=1;align=center;verticalAlign=middle;resizable=0;points=[];fontSize=12;rotation=-45;" vertex="1" connectable="0" parent="E7nbCfxs4qQWBFJL3slr-8">
          <mxGeometry x="-0.2035" y="-16" relative="1" as="geometry">
            <mxPoint x="5" y="-20" as="offset" />
          </mxGeometry>
        </mxCell>
        <mxCell id="E7nbCfxs4qQWBFJL3slr-10" value="" style="curved=1;endArrow=classic;html=1;rounded=0;fontSize=12;startSize=8;endSize=8;exitX=0.5;exitY=0;exitDx=0;exitDy=0;entryX=1;entryY=0.25;entryDx=0;entryDy=0;" edge="1" parent="1" source="E7nbCfxs4qQWBFJL3slr-6" target="E7nbCfxs4qQWBFJL3slr-2">
          <mxGeometry width="50" height="50" relative="1" as="geometry">
            <mxPoint x="-50" y="100" as="sourcePoint" />
            <mxPoint y="50" as="targetPoint" />
            <Array as="points">
              <mxPoint x="-90" y="80" />
            </Array>
          </mxGeometry>
        </mxCell>
        <mxCell id="E7nbCfxs4qQWBFJL3slr-11" value="datasource" style="edgeLabel;html=1;align=center;verticalAlign=middle;resizable=0;points=[];fontSize=12;rotation=45;" vertex="1" connectable="0" parent="E7nbCfxs4qQWBFJL3slr-10">
          <mxGeometry x="0.0795" y="-2" relative="1" as="geometry">
            <mxPoint x="4" y="2" as="offset" />
          </mxGeometry>
        </mxCell>
        <mxCell id="E7nbCfxs4qQWBFJL3slr-14" value="" style="curved=1;endArrow=classic;html=1;rounded=0;fontSize=12;startSize=8;endSize=8;exitX=1;exitY=0;exitDx=0;exitDy=0;entryX=1;entryY=0.25;entryDx=0;entryDy=0;dashed=1;" edge="1" parent="1" source="E7nbCfxs4qQWBFJL3slr-2" target="E7nbCfxs4qQWBFJL3slr-6">
          <mxGeometry width="50" height="50" relative="1" as="geometry">
            <mxPoint x="70" y="70" as="sourcePoint" />
            <mxPoint x="120" y="20" as="targetPoint" />
            <Array as="points">
              <mxPoint y="20" />
            </Array>
          </mxGeometry>
        </mxCell>
        <mxCell id="E7nbCfxs4qQWBFJL3slr-15" value="alert" style="edgeLabel;html=1;align=center;verticalAlign=middle;resizable=0;points=[];fontSize=12;" vertex="1" connectable="0" parent="E7nbCfxs4qQWBFJL3slr-14">
          <mxGeometry x="-0.3697" y="-30" relative="1" as="geometry">
            <mxPoint as="offset" />
          </mxGeometry>
        </mxCell>
        <mxCell id="E7nbCfxs4qQWBFJL3slr-34" value="" style="curved=1;endArrow=none;html=1;rounded=0;fontSize=12;startSize=8;endSize=8;entryX=0;entryY=0.5;entryDx=0;entryDy=0;exitX=1;exitY=0.5;exitDx=0;exitDy=0;dashed=1;dashPattern=1 1;endFill=0;startArrow=classic;startFill=1;" edge="1" parent="1" source="E7nbCfxs4qQWBFJL3slr-31" target="E7nbCfxs4qQWBFJL3slr-3">
          <mxGeometry width="50" height="50" relative="1" as="geometry">
            <mxPoint x="-420" y="200" as="sourcePoint" />
            <mxPoint x="-370" y="150" as="targetPoint" />
            <Array as="points">
              <mxPoint x="-420" y="150" />
            </Array>
          </mxGeometry>
        </mxCell>
        <mxCell id="E7nbCfxs4qQWBFJL3slr-35" value="get metric" style="edgeLabel;html=1;align=center;verticalAlign=middle;resizable=0;points=[];fontSize=12;rotation=-5;" vertex="1" connectable="0" parent="E7nbCfxs4qQWBFJL3slr-34">
          <mxGeometry x="-0.2054" y="-6" relative="1" as="geometry">
            <mxPoint as="offset" />
          </mxGeometry>
        </mxCell>
        <mxCell id="E7nbCfxs4qQWBFJL3slr-37" value="consul:8500" style="shape=image;verticalLabelPosition=bottom;labelBackgroundColor=default;verticalAlign=top;aspect=fixed;imageAspect=0;image=https://global-uploads.webflow.com/6203daf47137054c031fa0e6/64071d4ee3e10617c9106129_consul.png;fontStyle=0" vertex="1" parent="1">
          <mxGeometry x="-470" y="10" width="50" height="50" as="geometry" />
        </mxCell>
        <mxCell id="E7nbCfxs4qQWBFJL3slr-38" value="" style="curved=1;endArrow=classic;html=1;rounded=0;fontSize=12;startSize=8;endSize=8;exitX=0.525;exitY=-0.01;exitDx=0;exitDy=0;exitPerimeter=0;dashed=1;dashPattern=8 8;" edge="1" parent="1" source="E7nbCfxs4qQWBFJL3slr-31" target="E7nbCfxs4qQWBFJL3slr-37">
          <mxGeometry width="50" height="50" relative="1" as="geometry">
            <mxPoint x="-610" y="80" as="sourcePoint" />
            <mxPoint x="-560" y="30" as="targetPoint" />
            <Array as="points">
              <mxPoint x="-610" y="30" />
            </Array>
          </mxGeometry>
        </mxCell>
        <mxCell id="E7nbCfxs4qQWBFJL3slr-40" value="register service" style="edgeLabel;html=1;align=center;verticalAlign=middle;resizable=0;points=[];fontSize=12;rotation=-15;" vertex="1" connectable="0" parent="E7nbCfxs4qQWBFJL3slr-38">
          <mxGeometry x="0.0559" y="-16" relative="1" as="geometry">
            <mxPoint x="6" y="-9" as="offset" />
          </mxGeometry>
        </mxCell>
        <mxCell id="E7nbCfxs4qQWBFJL3slr-41" value="" style="curved=1;endArrow=classic;html=1;rounded=0;fontSize=12;startSize=8;endSize=8;exitX=0.25;exitY=0;exitDx=0;exitDy=0;dashed=1;dashPattern=8 8;" edge="1" parent="1" source="E7nbCfxs4qQWBFJL3slr-3" target="E7nbCfxs4qQWBFJL3slr-37">
          <mxGeometry width="50" height="50" relative="1" as="geometry">
            <mxPoint x="-420" y="140" as="sourcePoint" />
            <mxPoint x="-370" y="90" as="targetPoint" />
            <Array as="points">
              <mxPoint x="-330" y="80" />
              <mxPoint x="-390" y="40" />
            </Array>
          </mxGeometry>
        </mxCell>
        <mxCell id="E7nbCfxs4qQWBFJL3slr-42" value="service discovery" style="edgeLabel;html=1;align=center;verticalAlign=middle;resizable=0;points=[];fontSize=12;rotation=45;" vertex="1" connectable="0" parent="E7nbCfxs4qQWBFJL3slr-41">
          <mxGeometry x="-0.083" y="2" relative="1" as="geometry">
            <mxPoint y="-16" as="offset" />
          </mxGeometry>
        </mxCell>
        <mxCell id="E7nbCfxs4qQWBFJL3slr-31" value="" style="rounded=1;whiteSpace=wrap;html=1;fillColor=none;dashed=1;" vertex="1" parent="1">
          <mxGeometry x="-810" y="138.16" width="310" height="100" as="geometry" />
        </mxCell>
        <mxCell id="E7nbCfxs4qQWBFJL3slr-23" value="node_exporter" style="shape=image;verticalLabelPosition=bottom;labelBackgroundColor=default;verticalAlign=top;aspect=fixed;imageAspect=0;image=https://cdn-icons-png.flaticon.com/512/226/226772.png;" vertex="1" parent="1">
          <mxGeometry x="-780" y="168.16" width="30" height="30" as="geometry" />
        </mxCell>
        <mxCell id="E7nbCfxs4qQWBFJL3slr-24" value="windows_exporter" style="shape=image;verticalLabelPosition=bottom;labelBackgroundColor=default;verticalAlign=top;aspect=fixed;imageAspect=0;image=https://cdn-icons-png.flaticon.com/512/882/882702.png;" vertex="1" parent="1">
          <mxGeometry x="-670" y="168.16" width="30" height="30" as="geometry" />
        </mxCell>
        <mxCell id="E7nbCfxs4qQWBFJL3slr-45" value="mssql_exporter" style="shape=image;verticalLabelPosition=bottom;labelBackgroundColor=default;verticalAlign=top;aspect=fixed;imageAspect=0;image=https://elest.io/images/softwares/70/logo.png;" vertex="1" parent="1">
          <mxGeometry x="-565" y="158.16" width="40" height="40" as="geometry" />
        </mxCell>
      </root>
    </mxGraphModel>
  </diagram>
</mxfile>
